<?xml version="1.0" encoding="UTF-8"?>
<svg width="1024px" height="1024px" viewBox="0 0 1024 1024" version="1.1" xmlns="http://www.w3.org/2000/svg" xmlns:xlink="http://www.w3.org/1999/xlink">
    <title>切片</title>
    <defs>
        <linearGradient x1="50%" y1="0%" x2="50%" y2="100%" id="linearGradient-1">
            <stop stop-color="#4476AB" offset="0%"></stop>
            <stop stop-color="#004386" offset="100%"></stop>
        </linearGradient>
        <polygon id="path-2" points="0.115201246 0.617828617 362.187089 0.617828617 362.187089 591.119548 0.115201246 591.119548"></polygon>
    </defs>
    <g id="EPOCH" stroke="none" stroke-width="1" fill="none" fill-rule="evenodd">
        <g id="Group-2">
            <g id="background" fill="url(#linearGradient-1)">
                <rect id="矩形" x="0" y="0" width="1024" height="1024"></rect>
            </g>
            <g id="Group-6" transform="translate(117.701149, 215.785441)">
                <g id="Group-3" transform="translate(426.339719, 0.000000)">
                    <mask id="mask-3" fill="white">
                        <use xlink:href="#path-2"></use>
                    </mask>
                    <g id="Clip-2"></g>
                    <path d="M294.494987,295.868688 C294.494987,318.338421 292.207671,340.281129 287.857494,361.479595 C283.172414,384.308985 276.071756,406.262377 266.872611,427.094062 C266.320377,428.343963 265.768143,429.604547 265.198095,430.847326 C255.767368,451.486719 244.241715,470.968796 230.895472,489.040728 C229.994084,490.269264 229.078445,491.490677 228.152117,492.701408 C226.035815,495.489649 223.873196,498.238719 221.667824,500.952179 C217.396028,498.139012 213.085042,495.375697 208.717051,492.701408 C194.704565,484.123026 180.193287,476.281766 165.254473,469.206115 C144.191208,459.235394 122.262184,450.817257 99.6063484,444.08702 C89.1566605,440.981852 78.5537722,438.236343 67.8083721,435.868297 L67.8083721,155.86908 C78.5537722,153.501033 89.1566605,150.755524 99.6063484,147.650357 C122.262184,140.92012 144.191208,132.505543 165.254473,122.531261 C180.19685,115.45561 194.704565,107.61435 208.717051,99.0359688 C213.085042,96.358118 217.396028,93.5983648 221.667824,90.785197 C223.873196,93.4986576 226.032252,96.2477278 228.152117,99.0359688 C229.074882,100.246699 229.994084,101.468113 230.895472,102.696648 C244.241715,120.76858 255.767368,140.250657 265.198095,160.89005 C265.768143,162.13639 266.320377,163.389852 266.872611,164.643314 C276.071756,185.475 283.172414,207.428391 287.857494,230.257782 C292.207671,251.456247 294.494987,273.398956 294.494987,295.868688 M356.712137,230.257782 C352.917756,207.674098 347.210153,185.749194 339.74609,164.643314 C331.640724,141.72846 321.490311,119.77863 309.48368,99.0359688 C305.386462,91.9531958 301.061225,85.0199836 296.543596,78.2256493 C289.941731,68.2976597 282.894515,58.6901577 275.437578,49.4209479 C271.055336,43.9691 266.527019,38.6312032 261.863316,33.4215014 C252.119062,22.5427323 241.783384,12.212353 230.895472,2.47309495 C230.204289,1.85348585 229.50598,1.23387675 228.807672,0.617828617 C215.343856,12.4865478 201.071286,23.4543411 186.068341,33.4215014 C181.66116,36.3521812 177.200536,39.2152026 172.668656,41.9713948 C170.213888,43.459881 167.741306,44.9163185 165.254473,46.3549511 C144.494046,58.3554263 122.532956,68.5006351 99.6063484,76.6018461 C89.199414,80.28033 78.5965258,83.5457412 67.8083721,86.355348 C56.7102548,89.2432962 45.4197465,91.6398302 33.9617867,93.5591941 C30.2030343,94.1894861 26.4300307,94.7663635 22.6392131,95.2898264 C15.1929643,96.3153863 7.68614798,97.1486537 0.115201246,97.7540189 L0.115201246,99.0359688 L0.115201246,139.691584 L0.115201246,164.643314 L0.115201246,165.57985 L0.115201246,230.257782 L0.115201246,294.590299 L0.115201246,295.868688 L0.115201246,297.150638 L0.115201246,361.479595 L0.115201246,426.161087 L0.115201246,427.094062 L0.115201246,450.02316 L0.115201246,492.701408 L0.115201246,493.983357 C8.12793499,494.624332 16.0729756,495.518136 23.9431974,496.63272 C27.2993535,497.10633 30.6341329,497.61911 33.9617867,498.178182 C45.4197465,500.101107 56.7102548,502.49408 67.8083721,505.382028 C78.5965258,508.191635 89.199414,511.457046 99.6063484,515.13553 C122.532956,523.236741 144.494046,533.38195 165.254473,545.382425 C167.741306,546.821058 170.213888,548.277495 172.668656,549.769543 C177.200536,552.522174 181.657597,555.385195 186.068341,558.315875 C201.067723,568.283035 215.343856,579.247268 228.807672,591.119548 C229.50598,590.5035 230.204289,589.883891 230.895472,589.267842 C241.783384,579.525023 252.119062,569.194644 261.863316,558.315875 C266.527019,553.106173 271.055336,547.768276 275.441141,542.316428 C282.894515,533.047219 289.941731,523.439717 296.543596,513.511727 C301.061225,506.717393 305.386462,499.784181 309.48368,492.701408 C321.490311,471.955186 331.640724,450.008916 339.74609,427.094062 C347.210153,405.988182 352.921319,384.063278 356.712137,361.479595 C360.296312,340.142251 362.188158,318.224469 362.188158,295.868688 C362.188158,273.509346 360.296312,251.598686 356.712137,230.257782" id="Fill-1" fill="#FFFFFF" mask="url(#mask-3)"></path>
                </g>
                <path d="M140.592142,498.643156 C138.385643,495.938867 136.221919,493.199089 134.104536,490.423822 C133.181299,489.213635 132.265192,487.99635 131.356214,486.771967 C118.006716,468.761121 106.475173,449.344896 97.0396262,428.775267 C96.4692871,427.536688 95.9167711,426.283914 95.3642552,425.034689 C86.156844,404.273417 79.0561227,382.394231 74.3686486,359.642007 C70.0162486,338.515195 67.7277632,316.646655 67.7277632,294.252874 C67.7277632,271.862641 70.0162486,249.994101 74.3686486,228.86374 C79.0561227,206.111516 86.1604086,184.23233 95.3642552,163.474607 C95.9203357,162.225382 96.4692871,160.972608 97.0396262,159.730481 C106.475173,139.1644 118.006716,119.744626 131.356214,101.737329 C132.265192,100.512946 133.181299,99.2956611 134.104536,98.0854742 C136.221919,95.3102068 138.385643,92.5668798 140.592142,89.862591 C144.866121,92.6662499 149.17931,95.4166748 153.549533,98.0854742 C167.56918,106.634859 182.087874,114.449615 197.034322,121.501349 C218.10835,131.438368 240.04858,139.8316 262.715993,146.535539 C273.171021,149.630211 283.779328,152.362891 294.530219,154.726482 L294.530219,433.782814 C283.779328,436.142856 273.171021,438.875536 262.715993,441.970208 C240.04858,448.677696 218.10835,457.067379 197.034322,467.004398 C182.087874,474.056132 167.56918,481.870888 153.549533,490.423822 C149.17931,493.089072 144.866121,495.839497 140.592142,498.643156 M328.394101,92.6307606 C316.93385,90.7143355 305.634007,88.3259021 294.530219,85.4477155 C283.736552,82.6511545 273.128246,79.3932319 262.715993,75.7271817 C239.774105,67.6569028 217.801793,57.5424372 197.034322,45.5825252 C194.549782,44.1523042 192.072372,42.6972407 189.619914,41.2137858 C185.082154,38.4669099 180.619251,35.6135659 176.206252,32.696341 C161.199206,22.7628711 146.915777,11.8321503 133.45221,0 C132.74998,0.613965809 132.051315,1.23148055 131.356214,1.8489953 C120.466303,11.5553334 110.125343,21.8507947 100.37611,32.696341 C95.7100232,37.8848845 91.1793923,43.2047385 86.7913462,48.6381585 C79.334163,57.8760371 72.286911,67.4510645 65.6781072,77.3490451 C61.1581701,84.1168648 56.8307225,91.0266418 52.7349752,98.0854742 L52.7314106,98.0854742 C40.7186441,118.758022 30.5630443,140.63366 22.4535358,163.474607 C14.9856588,184.505598 9.27157432,206.359942 5.47881958,228.86374 C1.89281275,250.13251 0,271.969109 0,294.252874 C0,316.536638 1.89281275,338.376786 5.47881958,359.642007 C9.27157432,382.149354 14.9856588,404.000149 22.4535358,425.034689 C30.5630443,447.872087 40.7186441,469.744176 52.7314106,490.423822 C56.8307225,497.479105 61.1581701,504.388882 65.6781072,511.160251 C72.286911,521.054683 79.334163,530.633259 86.7913462,539.867589 C91.1793923,545.301009 95.7064586,550.620863 100.37611,555.812955 C110.125343,566.654952 120.466303,576.950414 131.356214,586.660301 C132.051315,587.277816 132.74998,587.891781 133.45221,588.505747 C146.915777,576.673597 161.199206,565.746425 176.209817,555.812955 C180.619251,552.892181 185.082154,550.038837 189.616349,547.29551 C192.072372,545.808506 194.549782,544.356992 197.034322,542.926771 C217.801793,530.96331 239.774105,520.852393 262.715993,512.778565 C273.128246,509.112515 283.736552,505.858142 294.530219,503.058032 C305.634007,500.183394 316.93385,497.794961 328.394101,495.878535 C331.71989,495.321353 335.063503,494.810306 338.417809,494.338298 C346.292053,493.23103 354.241154,492.336698 362.257982,491.69789 L362.257982,490.423822 L362.257982,447.886283 L362.257982,425.034689 L362.257982,424.104868 L362.257982,359.642007 L362.257982,295.53049 L362.257982,294.252874 L362.257982,292.978806 L362.257982,228.86374 L362.257982,164.404428 L362.257982,163.474607 L362.257982,138.603669 L362.257982,98.0854742 L362.257982,96.8078575 C354.683167,96.2080874 347.172514,95.3776365 339.72246,94.3519942 C335.929705,93.8338497 332.151209,93.2553732 328.394101,92.6307606" id="Fill-4" fill="#FFFFFF"></path>
            </g>
        </g>
    </g>
</svg>